<?xml version="1.0" encoding="UTF-8"?><svg id="Livello_2" xmlns="http://www.w3.org/2000/svg" width="274.333" height="169.008" viewBox="0 0 274.333 169.008"><defs><style>.cls-1{fill:#c8152f;}.cls-2{fill:#202b37;}</style></defs><g id="Livello_1-2"><path class="cls-1" d="m33.504,77.489c0,10.501-2.492,18.42-7.475,23.76-4.985,5.339-11.793,9.521-20.423,12.547l-5.606-15.083c3.471-1.514,6.074-3.204,7.809-5.072,1.735-1.869,2.891-4.092,3.471-6.674.577-2.58.867-6.007.867-10.278V0l21.357,10.001v67.489Z"/><path class="cls-1" d="m100.806,103.505h-17.887l-.935-8.543c-4.628,7.208-10.901,10.812-18.821,10.812-5.785,0-10.257-1.915-13.415-5.74-3.16-3.825-4.738-8.987-4.738-15.484v-51.925h20.557v50.323c0,5.073,1.778,7.609,5.339,7.609,3.471,0,6.585-2.58,9.344-7.742v-50.19h20.557v70.88Z"/><path class="cls-2" d="m134.296,11.001v75.552h32.17l-2.27,16.952h-51.257V11.001h21.356Z"/><path class="cls-2" d="m194.029,11.001v92.504h-21.356V11.001h21.356Z"/><path class="cls-2" d="m252.308,103.505l-4.138-20.156h-23.493l-4.138,20.156h-21.624l24.961-92.504h25.629l24.828,92.504h-22.025Zm-24.427-35.506h17.086l-8.543-41.38-8.543,41.38Z"/><path class="cls-1" d="m6.706,141.418c.467-.447.807-.997,1.021-1.65.173-.507.286-1.097.34-1.77.053-.673.08-1.71.08-3.11v-8.88l-1.92-.26v-1h5.88v1l-1.82.26v9.04c0,1.054-.014,1.9-.04,2.54s-.087,1.187-.18,1.64c-.24,1.066-.767,1.946-1.58,2.64s-1.754,1.133-2.82,1.32l-.54-.84c.587-.174,1.113-.484,1.58-.93Z"/><path class="cls-1" d="m20.663,139.568c-.18-.146-.27-.387-.27-.72v-.68c-.44.44-.99.827-1.65,1.16-.66.333-1.323.5-1.99.5-1.239,0-2.119-.333-2.64-1-.52-.667-.78-1.767-.78-3.3v-5.8l-1.119-.32v-.88l2.8-.26h.02l.38.24v6.86c0,.773.057,1.377.17,1.81.113.434.313.753.601.96.286.207.703.31,1.25.31.533,0,1.033-.113,1.5-.34.467-.227.873-.493,1.22-.8v-7.58l-1.439-.32v-.88l3.039-.26h.021l.46.24v10.08h1.2l-.021.9c-.373.094-.696.167-.97.22-.273.053-.59.08-.95.08-.373,0-.649-.074-.83-.22Z"/><path class="cls-1" d="m26.34,138.008c.134.2.417.38.851.54.433.16.89.24,1.37.24.76,0,1.319-.147,1.68-.44.36-.293.54-.7.54-1.22,0-.36-.113-.673-.34-.94s-.544-.503-.95-.71c-.407-.207-.99-.457-1.75-.75-1.026-.387-1.776-.85-2.25-1.39s-.71-1.25-.71-2.13c0-.586.177-1.1.53-1.54.353-.44.84-.783,1.46-1.03.62-.247,1.31-.37,2.069-.37.613,0,1.15.047,1.61.14.46.094.83.187,1.11.28.279.093.467.153.56.18v2.48h-1.22l-.4-1.48c-.08-.16-.293-.296-.64-.41s-.733-.17-1.16-.17c-.6,0-1.083.133-1.45.4-.366.267-.55.627-.55,1.08,0,.4.097.73.29.99.193.26.437.47.73.63.293.16.692.347,1.199.56l.4.16c.746.293,1.354.573,1.82.84.466.267.856.617,1.17,1.05.312.433.47.963.47,1.59,0,.987-.384,1.773-1.15,2.36-.767.587-1.816.88-3.149.88-.653,0-1.337-.09-2.05-.27-.714-.18-1.297-.363-1.75-.55v-2.56h1.3l.359,1.56Z"/><path class="cls-1" d="m35.566,139.288c-.373-.347-.56-.94-.56-1.78v-7.68h-1.44v-.9c.066-.013.253-.06.561-.14.306-.08.513-.153.619-.22.214-.12.381-.36.5-.72.107-.253.233-.66.381-1.22.146-.56.232-.893.26-1h1.18l.04,2.88h3.34v1.32h-3.34v6.14c0,.76.023,1.293.07,1.6.046.307.146.507.3.6s.417.14.79.14c.36,0,.757-.047,1.189-.14.434-.093.771-.193,1.011-.3l.3.9c-.32.24-.837.473-1.55.7-.714.227-1.363.34-1.95.34-.76,0-1.327-.174-1.7-.52Z"/><path class="cls-1" d="m43.329,130.048l-1.521-.36v-1.06l3.101-.38h.04l.46.36v9.86l1.6.16v.98h-5.3v-.98l1.62-.18v-8.4Zm-.16-3.9c-.214-.24-.32-.546-.32-.92,0-.427.13-.78.391-1.06.26-.28.616-.42,1.069-.42s.787.12,1,.36c.214.24.32.547.32.92,0,.454-.13.813-.39,1.08-.261.267-.624.4-1.091.4h-.02c-.427,0-.747-.12-.96-.36Z"/><path class="cls-1" d="m48.098,131.128c.433-.893,1.073-1.603,1.92-2.13s1.863-.79,3.05-.79c.573,0,1.066.053,1.479.16.414.107.907.254,1.48.44l-.08,3.08h-1.3l-.44-2.04c-.08-.374-.587-.56-1.52-.56s-1.67.376-2.21,1.13-.811,1.823-.811,3.21c0,1.573.304,2.77.91,3.59.606.82,1.396,1.23,2.37,1.23.561,0,1.09-.086,1.59-.26s.931-.38,1.29-.62l.38.8c-.359.374-.89.71-1.59,1.01s-1.41.45-2.13.45c-1.094,0-2.017-.247-2.77-.74-.754-.493-1.32-1.17-1.7-2.03-.38-.86-.57-1.837-.57-2.93,0-1.106.217-2.106.65-3Z"/><path class="cls-1" d="m58.452,138.248c-.847-1.053-1.271-2.46-1.271-4.22,0-1.16.221-2.18.66-3.06.44-.88,1.057-1.56,1.851-2.04.793-.48,1.696-.72,2.71-.72,1.239,0,2.203.343,2.89,1.03.687.687,1.05,1.67,1.09,2.95,0,.813-.047,1.434-.14,1.86h-6.88c.026,1.32.333,2.383.92,3.19.586.807,1.42,1.21,2.5,1.21.533,0,1.09-.096,1.67-.29.58-.193,1.03-.423,1.35-.69l.38.88c-.387.4-.96.747-1.72,1.04-.76.293-1.533.44-2.32.44-1.613,0-2.843-.527-3.689-1.58Zm5.729-5.26c.04-.28.061-.566.061-.86-.014-.867-.197-1.55-.55-2.05-.354-.5-.91-.75-1.67-.75-.773,0-1.391.28-1.851.84s-.724,1.5-.79,2.82h4.8Z"/><path class="cls-1" d="m70.448,137.258c.293.434.439,1.023.439,1.77,0,.76-.12,1.493-.359,2.2-.24.707-.54,1.31-.9,1.81s-.714.85-1.06,1.05h-.021l-.68-.48v-.22c.267-.213.536-.677.81-1.39.273-.713.41-1.39.41-2.03,0-.2-.037-.363-.11-.49-.073-.126-.189-.277-.35-.45-.187-.2-.327-.387-.42-.56-.094-.173-.14-.406-.14-.7,0-.347.109-.627.329-.84.221-.213.497-.32.83-.32h.101c.453,0,.826.217,1.12.65Z"/><path class="cls-1" d="m82.074,125.988l-1.721-.24v-1h10.7l.2,3.4h-1.3l-.601-2.22-5.14-.14v5.8l3.62-.06.34-1.66h1.061v4.68h-1.04l-.36-1.74-3.62-.08v5.7l3.12.2v.98h-6.86v-.98l1.601-.2v-12.44Z"/><path class="cls-1" d="m100.517,139.568c-.18-.146-.27-.387-.27-.72v-.68c-.44.44-.99.827-1.65,1.16-.66.333-1.323.5-1.99.5-1.239,0-2.119-.333-2.64-1-.52-.667-.78-1.767-.78-3.3v-5.8l-1.119-.32v-.88l2.8-.26h.02l.38.24v6.86c0,.773.057,1.377.17,1.81.113.434.313.753.601.96.286.207.703.31,1.25.31.533,0,1.033-.113,1.5-.34.467-.227.873-.493,1.22-.8v-7.58l-1.439-.32v-.88l3.039-.26h.021l.46.24v10.08h1.2l-.021.9c-.373.094-.696.167-.97.22-.273.053-.59.08-.95.08-.373,0-.649-.074-.83-.22Z"/><path class="cls-1" d="m105.665,130.048l-1.44-.36v-1.08l2.86-.36h.06l.42.36v.84l-.02.48c.479-.426,1.113-.813,1.899-1.16.787-.347,1.54-.52,2.261-.52.84,0,1.489.16,1.949.48.46.32.783.81.971,1.47.187.66.279,1.55.279,2.67v5.6l1.4.14v1h-4.74v-.98l1.24-.16v-5.62c0-.787-.054-1.403-.16-1.85s-.307-.78-.6-1c-.294-.22-.721-.33-1.28-.33-.479,0-.993.12-1.54.36-.547.24-1.033.52-1.46.84v7.58l1.36.18v.98h-4.721v-.98l1.261-.18v-8.4Z"/><path class="cls-1" d="m119.086,139.228c-.667-.4-1.196-1.013-1.59-1.84-.394-.826-.59-1.846-.59-3.06,0-1.133.233-2.167.7-3.1.466-.933,1.137-1.67,2.01-2.21s1.903-.81,3.09-.81c.68,0,1.3.073,1.86.22v-3.74l-2.04-.24v-.86l3.6-.36h.061l.439.32v15.04h1.16v.92c-.427.094-.797.167-1.11.22-.313.053-.643.08-.989.08s-.594-.06-.74-.18c-.147-.12-.22-.373-.22-.76v-.64c-.374.453-.864.833-1.471,1.14-.606.307-1.263.46-1.97.46-.8,0-1.533-.2-2.2-.6Zm4.46-1.17c.453-.233.793-.503,1.021-.81v-7.32c-.107-.16-.357-.303-.75-.43-.394-.126-.811-.19-1.25-.19-1.04,0-1.87.396-2.49,1.19s-.93,2.017-.93,3.67c0,1.44.272,2.507.819,3.2.547.694,1.254,1.04,2.12,1.04.521,0,1.007-.116,1.46-.35Z"/><path class="cls-1" d="m130.653,133.838c1.253-.593,2.84-.91,4.76-.95v-.56c0-.627-.066-1.12-.2-1.48-.133-.36-.363-.624-.689-.79-.327-.167-.79-.25-1.391-.25-.68,0-1.289.097-1.829.29s-1.077.43-1.61.71l-.5-1.04c.173-.146.493-.34.96-.58.467-.24,1.007-.453,1.62-.64.613-.187,1.227-.28,1.84-.28.946,0,1.696.13,2.25.39.553.26.95.677,1.19,1.25.239.574.359,1.34.359,2.3v6.42h1.181v.88c-.268.067-.604.133-1.011.2-.406.066-.763.1-1.069.1-.374,0-.627-.057-.761-.17-.133-.113-.199-.363-.199-.75v-.66c-.4.4-.891.767-1.471,1.1-.58.333-1.236.5-1.97.5-.96,0-1.757-.277-2.39-.83-.634-.553-.95-1.35-.95-2.39,0-1.253.626-2.177,1.88-2.77Zm3.52,4.31c.453-.213.867-.467,1.24-.76v-3.44c-1.453,0-2.55.224-3.29.67-.74.447-1.109,1.03-1.109,1.75s.176,1.25.529,1.59c.354.34.83.51,1.431.51.347,0,.746-.106,1.199-.32Z"/><path class="cls-1" d="m139.632,138.628l1.221-.18v-8.4l-1.44-.36v-1.08l2.86-.36.359.26.12.8-.02.64c.467-.426,1.103-.816,1.91-1.17.807-.353,1.529-.53,2.17-.53.72,0,1.3.12,1.739.36.44.24.773.613,1,1.12.427-.36,1.023-.697,1.79-1.01.767-.313,1.483-.47,2.15-.47.826,0,1.473.157,1.94.47.466.313.796.8.989,1.46.193.66.29,1.543.29,2.65v5.62l1.44.18v.98h-4.76v-.98l1.239-.18v-5.56c0-.773-.057-1.39-.17-1.85s-.326-.803-.64-1.03c-.313-.227-.764-.34-1.35-.34-.44,0-.907.097-1.4.29s-.913.423-1.26.69c.12.52.18,1.26.18,2.22v5.58l1.42.18v.98h-4.84v-.98l1.32-.18v-5.6c0-.8-.051-1.42-.15-1.86s-.29-.77-.57-.99c-.279-.22-.707-.33-1.279-.33-.48,0-.99.12-1.53.36-.54.24-1.01.52-1.41.84v7.58l1.34.18v.98h-4.66v-.98Z"/><path class="cls-1" d="m160.014,138.248c-.847-1.053-1.27-2.46-1.27-4.22,0-1.16.22-2.18.66-3.06.439-.88,1.057-1.56,1.85-2.04s1.696-.72,2.71-.72c1.24,0,2.203.343,2.891,1.03.687.687,1.05,1.67,1.09,2.95,0,.813-.047,1.434-.141,1.86h-6.88c.026,1.32.333,2.383.92,3.19.587.807,1.42,1.21,2.5,1.21.533,0,1.09-.096,1.67-.29.58-.193,1.03-.423,1.351-.69l.38.88c-.387.4-.96.747-1.72,1.04-.761.293-1.534.44-2.32.44-1.613,0-2.844-.527-3.69-1.58Zm5.73-5.26c.04-.28.06-.566.06-.86-.013-.867-.196-1.55-.55-2.05s-.91-.75-1.67-.75c-.773,0-1.39.28-1.85.84s-.724,1.5-.79,2.82h4.8Z"/><path class="cls-1" d="m170.25,130.048l-1.44-.36v-1.08l2.86-.36h.06l.42.36v.84l-.02.48c.479-.426,1.113-.813,1.899-1.16.787-.347,1.54-.52,2.261-.52.84,0,1.489.16,1.949.48.46.32.783.81.971,1.47.187.66.279,1.55.279,2.67v5.6l1.4.14v1h-4.74v-.98l1.24-.16v-5.62c0-.787-.054-1.403-.16-1.85s-.307-.78-.6-1c-.294-.22-.721-.33-1.28-.33-.479,0-.993.12-1.54.36-.547.24-1.033.52-1.46.84v7.58l1.36.18v.98h-4.721v-.98l1.261-.18v-8.4Z"/><path class="cls-1" d="m183.072,139.288c-.373-.347-.56-.94-.56-1.78v-7.68h-1.44v-.9c.066-.013.253-.06.561-.14.306-.08.513-.153.619-.22.214-.12.381-.36.5-.72.107-.253.233-.66.381-1.22.146-.56.232-.893.26-1h1.18l.04,2.88h3.34v1.32h-3.34v6.14c0,.76.023,1.293.07,1.6.046.307.146.507.3.6s.417.14.79.14c.36,0,.757-.047,1.189-.14.434-.093.771-.193,1.011-.3l.3.9c-.32.24-.837.473-1.55.7-.714.227-1.363.34-1.95.34-.76,0-1.327-.174-1.7-.52Z"/><path class="cls-1" d="m190.942,133.838c1.254-.593,2.841-.91,4.761-.95v-.56c0-.627-.067-1.12-.2-1.48-.134-.36-.363-.624-.69-.79-.326-.167-.79-.25-1.39-.25-.68,0-1.29.097-1.83.29s-1.077.43-1.61.71l-.5-1.04c.174-.146.493-.34.96-.58.467-.24,1.007-.453,1.62-.64.613-.187,1.227-.28,1.841-.28.946,0,1.696.13,2.25.39.553.26.949.677,1.189,1.25.24.574.36,1.34.36,2.3v6.42h1.18v.88c-.267.067-.604.133-1.01.2-.407.066-.764.1-1.07.1-.373,0-.627-.057-.76-.17-.134-.113-.2-.363-.2-.75v-.66c-.4.4-.89.767-1.47,1.1-.58.333-1.237.5-1.97.5-.961,0-1.758-.277-2.391-.83s-.95-1.35-.95-2.39c0-1.253.627-2.177,1.88-2.77Zm3.521,4.31c.453-.213.866-.467,1.24-.76v-3.44c-1.454,0-2.55.224-3.29.67-.74.447-1.11,1.03-1.11,1.75s.177,1.25.53,1.59c.353.34.83.51,1.43.51.347,0,.747-.106,1.2-.32Z"/><path class="cls-1" d="m201.472,124.688l-1.62-.22v-.86l3.22-.38h.04l.44.3v14.94l1.7.16v.98h-5.4v-.98l1.62-.18v-13.76Z"/><path class="cls-1" d="m213.598,138.628l1.66-.2v-12.44l-1.561-.26v-.98h2.62c.373,0,.88-.027,1.521-.08.666-.053,1.187-.08,1.56-.08,1.96,0,3.356.317,4.19.95.833.633,1.25,1.63,1.25,2.99,0,.947-.264,1.813-.79,2.6-.527.787-1.25,1.32-2.17,1.6.426.227.822.617,1.189,1.17.366.553.816,1.323,1.351,2.31.413.747.729,1.293.949,1.64.221.347.431.54.63.58l.78.2v.98h-2.76c-.214,0-.453-.23-.72-.69-.268-.46-.62-1.17-1.061-2.13-.479-1.053-.896-1.89-1.25-2.51s-.703-1.017-1.05-1.19c-1.427,0-2.273-.006-2.54-.02v5.36l1.98.2v.98h-5.78v-.98Zm8.2-7.46c.493-.56.739-1.393.739-2.5,0-.973-.25-1.717-.75-2.23s-1.363-.77-2.59-.77c-.427,0-.854.027-1.279.08-.268.027-.44.04-.521.04v6.2c.2.014.613.02,1.24.02h1.14c.854,0,1.526-.28,2.021-.84Z"/><path class="cls-1" d="m229.058,130.048l-1.521-.36v-1.06l3.101-.38h.04l.46.36v9.86l1.6.16v.98h-5.3v-.98l1.62-.18v-8.4Zm-.16-3.9c-.214-.24-.32-.546-.32-.92,0-.427.13-.78.391-1.06.26-.28.616-.42,1.069-.42s.787.12,1,.36c.214.24.32.547.32.92,0,.454-.13.813-.39,1.08-.261.267-.624.4-1.091.4h-.02c-.427,0-.747-.12-.96-.36Z"/><path class="cls-1" d="m234.402,144.198c-.768-.54-1.15-1.283-1.15-2.23,0-.587.183-1.127.55-1.62.366-.494.804-.867,1.311-1.12-.614-.347-.921-.907-.921-1.68,0-.48.141-.933.421-1.36.279-.427.646-.753,1.1-.98-.667-.293-1.177-.713-1.53-1.26-.354-.546-.529-1.193-.529-1.94,0-.773.216-1.446.649-2.02.434-.573,1.007-1.013,1.72-1.32.714-.307,1.471-.46,2.271-.46,1.347,0,2.399.28,3.16.84.2-.2.506-.393.92-.58.413-.187.853-.28,1.319-.28h.681v1.76h-2.2c.32.494.48,1.067.48,1.72,0,.787-.197,1.483-.591,2.09-.394.607-.939,1.077-1.64,1.41-.7.333-1.49.5-2.37.5-.573,0-1.087-.06-1.54-.18-.187.187-.34.394-.46.62-.12.227-.18.447-.18.66,0,.48.16.81.479.99.32.18.894.27,1.721.27h2.26c1.293,0,2.253.247,2.88.74s.94,1.193.94,2.1c0,.76-.273,1.457-.82,2.09-.547.633-1.283,1.133-2.21,1.5-.927.367-1.931.55-3.01.55-1.707,0-2.944-.27-3.71-.81Zm5.739-.64c.58-.194,1.05-.48,1.41-.86.36-.38.54-.823.54-1.33,0-.6-.16-1.037-.479-1.31-.32-.273-.94-.41-1.86-.41h-2.36c-.533,0-.953-.034-1.26-.1-.547.6-.82,1.273-.82,2.02s.227,1.313.681,1.7c.453.386,1.22.58,2.3.58.653,0,1.27-.097,1.85-.29Zm.391-11.69c0-.893-.197-1.55-.591-1.97-.393-.42-.983-.63-1.77-.63-.733,0-1.313.203-1.74.61s-.64,1.057-.64,1.95c0,.84.203,1.507.61,2,.406.493,1.022.74,1.85.74,1.52,0,2.28-.9,2.28-2.7Z"/><path class="cls-1" d="m246.251,124.688l-1.68-.22v-.86l3.26-.38h.04l.44.3v4.64l-.08,1.7c.427-.386,1.013-.753,1.76-1.1s1.5-.52,2.26-.52c.84,0,1.493.16,1.96.48.467.32.793.81.98,1.47.187.66.28,1.55.28,2.67v5.58l1.399.18v.98h-4.78v-.98l1.301-.18v-5.6c0-.787-.054-1.403-.16-1.85-.107-.447-.307-.78-.601-1-.293-.22-.733-.33-1.319-.33-.48,0-.994.12-1.54.36-.547.24-1.027.52-1.44.84v7.58l1.38.18v.98h-4.66v-.98l1.2-.16v-13.78Z"/><path class="cls-1" d="m259.063,139.288c-.373-.347-.56-.94-.56-1.78v-7.68h-1.44v-.9c.066-.013.253-.06.561-.14.306-.08.513-.153.619-.22.214-.12.381-.36.5-.72.107-.253.233-.66.381-1.22.146-.56.232-.893.26-1h1.18l.04,2.88h3.34v1.32h-3.34v6.14c0,.76.023,1.293.07,1.6.046.307.146.507.3.6s.417.14.79.14c.36,0,.757-.047,1.189-.14.434-.093.771-.193,1.011-.3l.3.9c-.32.24-.837.473-1.55.7-.714.227-1.363.34-1.95.34-.76,0-1.327-.174-1.7-.52Z"/><path class="cls-1" d="m266.994,138.008c.133.2.417.38.85.54.434.16.891.24,1.37.24.761,0,1.32-.147,1.681-.44.359-.293.54-.7.54-1.22,0-.36-.114-.673-.341-.94s-.543-.503-.949-.71c-.407-.207-.99-.457-1.75-.75-1.027-.387-1.777-.85-2.25-1.39-.474-.54-.71-1.25-.71-2.13,0-.586.176-1.1.529-1.54s.84-.783,1.46-1.03c.62-.247,1.311-.37,2.07-.37.613,0,1.15.047,1.61.14.46.094.83.187,1.109.28.28.093.467.153.561.18v2.48h-1.221l-.399-1.48c-.08-.16-.294-.296-.641-.41s-.733-.17-1.159-.17c-.601,0-1.084.133-1.45.4-.367.267-.55.627-.55,1.08,0,.4.097.73.29.99.192.26.437.47.729.63.293.16.693.347,1.2.56l.4.16c.746.293,1.353.573,1.819.84.467.267.856.617,1.17,1.05s.471.963.471,1.59c0,.987-.384,1.773-1.15,2.36-.767.587-1.817.88-3.15.88-.653,0-1.337-.09-2.05-.27-.713-.18-1.297-.363-1.75-.55v-2.56h1.3l.36,1.56Z"/><path class="cls-1" d="m17.332,157.838c1.253-.593,2.84-.91,4.76-.95v-.56c0-.627-.066-1.12-.2-1.48-.133-.36-.363-.624-.689-.79-.327-.167-.79-.25-1.391-.25-.68,0-1.289.097-1.829.29s-1.077.43-1.61.71l-.5-1.04c.173-.146.493-.34.96-.58.467-.24,1.007-.453,1.62-.64.613-.187,1.227-.28,1.84-.28.946,0,1.696.13,2.25.39.553.26.95.677,1.19,1.25.239.574.359,1.34.359,2.3v6.42h1.181v.88c-.268.067-.604.133-1.011.2-.406.066-.763.1-1.069.1-.374,0-.627-.057-.761-.17-.133-.113-.199-.363-.199-.75v-.66c-.4.4-.891.767-1.471,1.1-.58.333-1.236.5-1.97.5-.96,0-1.757-.277-2.39-.83-.634-.553-.95-1.35-.95-2.39,0-1.253.626-2.177,1.88-2.77Zm3.52,4.31c.453-.213.867-.467,1.24-.76v-3.44c-1.453,0-2.55.224-3.29.67-.74.447-1.109,1.03-1.109,1.75s.176,1.25.529,1.59c.354.34.83.51,1.431.51.347,0,.746-.106,1.199-.32Z"/><path class="cls-1" d="m28.052,154.048l-1.439-.36v-1.08l2.859-.36h.061l.42.36v.84l-.021.48c.48-.426,1.113-.813,1.9-1.16.786-.347,1.54-.52,2.26-.52.84,0,1.49.16,1.95.48.46.32.783.81.97,1.47.187.66.28,1.55.28,2.67v5.6l1.4.14v1h-4.74v-.98l1.24-.16v-5.62c0-.787-.054-1.403-.16-1.85-.107-.447-.308-.78-.601-1-.293-.22-.72-.33-1.279-.33-.48,0-.994.12-1.54.36-.547.24-1.034.52-1.46.84v7.58l1.359.18v.98h-4.72v-.98l1.26-.18v-8.4Z"/><path class="cls-1" d="m41.974,163.228c-.667-.4-1.197-1.013-1.59-1.84-.394-.826-.591-1.846-.591-3.06,0-1.133.233-2.167.7-3.1s1.137-1.67,2.01-2.21c.874-.54,1.903-.81,3.091-.81.68,0,1.3.073,1.859.22v-3.74l-2.04-.24v-.86l3.601-.36h.06l.44.32v15.04h1.16v.92c-.428.094-.797.167-1.11.22-.313.053-.644.08-.99.08s-.594-.06-.74-.18-.22-.373-.22-.76v-.64c-.373.453-.863.833-1.47,1.14-.607.307-1.264.46-1.97.46-.801,0-1.534-.2-2.2-.6Zm4.46-1.17c.453-.233.793-.503,1.02-.81v-7.32c-.106-.16-.356-.303-.75-.43-.394-.126-.81-.19-1.25-.19-1.04,0-1.87.396-2.49,1.19-.619.793-.93,2.017-.93,3.67,0,1.44.273,2.507.82,3.2.547.694,1.253,1.04,2.12,1.04.52,0,1.006-.116,1.46-.35Z"/><path class="cls-1" d="m61.913,148.628h2.2l4.859,13.8,1.24.2v.98h-5.28v-.98l1.66-.2-.939-2.96h-5.84l-.94,2.96,1.72.2v.98h-4.739v-.98l1.239-.2,4.82-13.8Zm1.26,3.2l-.5-1.76-.479,1.8-2.021,6.42h5.101l-2.101-6.46Z"/><path class="cls-1" d="m71.303,162.628l1.5-.12v-8.46l-1.439-.36v-1.08l2.76-.36h.04l.44.36v.36l-.061,1.56h.061c.133-.227.373-.52.72-.88s.793-.69,1.34-.99c.547-.3,1.14-.45,1.78-.45.267,0,.486.033.66.1v2.24c-.094-.066-.244-.13-.45-.19-.207-.06-.438-.09-.69-.09-1.106,0-2.133.34-3.08,1.02v7.2l2.54.16v.96h-6.12v-.98Z"/><path class="cls-1" d="m82.475,163.288c-.373-.347-.56-.94-.56-1.78v-7.68h-1.44v-.9c.066-.013.253-.06.561-.14.306-.08.513-.153.619-.22.214-.12.381-.36.5-.72.107-.253.233-.66.381-1.22.146-.56.232-.893.26-1h1.18l.04,2.88h3.34v1.32h-3.34v6.14c0,.76.023,1.293.07,1.6.046.307.146.507.3.6s.417.14.79.14c.36,0,.757-.047,1.189-.14.434-.093.771-.193,1.011-.3l.3.9c-.32.24-.837.473-1.55.7-.714.227-1.363.34-1.95.34-.76,0-1.327-.174-1.7-.52Z"/><path class="cls-1" d="m90.737,154.048l-1.52-.36v-1.06l3.1-.38h.04l.46.36v9.86l1.601.16v.98h-5.301v-.98l1.62-.18v-8.4Zm-.16-3.9c-.213-.24-.319-.546-.319-.92,0-.427.13-.78.39-1.06.26-.28.616-.42,1.07-.42s.786.12,1,.36c.213.24.319.547.319.92,0,.454-.13.813-.39,1.08-.26.267-.623.4-1.09.4h-.021c-.427,0-.746-.12-.96-.36Z"/><path class="cls-1" d="m97.513,153.828h-1.88v-.92l1.88-.38v-.94c0-.827.217-1.586.649-2.28.434-.693,1-1.243,1.7-1.65.7-.406,1.443-.61,2.23-.61.453,0,.847.06,1.18.18v2c-.12-.106-.356-.21-.71-.31s-.743-.15-1.17-.15c-.627,0-1.084.163-1.37.49-.287.327-.43.89-.43,1.69v1.58h2.76v1.3h-2.76v8.64l2.22.16v.98h-6v-.98l1.7-.18v-8.62Zm7.96.22l-1.521-.36v-1.06l3.101-.38h.04l.46.36v9.86l1.6.16v.98h-5.3v-.98l1.62-.18v-8.4Zm-.16-3.9c-.214-.24-.32-.546-.32-.92,0-.427.13-.78.391-1.06.26-.28.616-.42,1.069-.42s.787.12,1,.36c.214.24.32.547.32.92,0,.454-.13.813-.39,1.08-.261.267-.624.4-1.091.4h-.02c-.427,0-.747-.12-.96-.36Z"/><path class="cls-1" d="m110.628,155.128c.434-.893,1.073-1.603,1.92-2.13s1.863-.79,3.05-.79c.573,0,1.067.053,1.48.16.413.107.906.254,1.48.44l-.08,3.08h-1.301l-.439-2.04c-.08-.374-.587-.56-1.521-.56s-1.67.376-2.21,1.13-.81,1.823-.81,3.21c0,1.573.303,2.77.91,3.59.606.82,1.396,1.23,2.37,1.23.56,0,1.09-.086,1.59-.26s.93-.38,1.29-.62l.38.8c-.36.374-.891.71-1.59,1.01-.7.3-1.41.45-2.13.45-1.094,0-2.018-.247-2.771-.74-.753-.493-1.32-1.17-1.7-2.03-.38-.86-.569-1.837-.569-2.93,0-1.106.216-2.106.649-3Z"/><path class="cls-1" d="m122.027,154.048l-1.521-.36v-1.06l3.101-.38h.04l.46.36v9.86l1.6.16v.98h-5.3v-.98l1.62-.18v-8.4Zm-.16-3.9c-.214-.24-.32-.546-.32-.92,0-.427.13-.78.391-1.06.26-.28.616-.42,1.069-.42s.787.12,1,.36c.214.24.32.547.32.92,0,.454-.13.813-.39,1.08-.261.267-.624.4-1.091.4h-.02c-.427,0-.747-.12-.96-.36Z"/><path class="cls-1" d="m128.924,157.838c1.253-.593,2.84-.91,4.76-.95v-.56c0-.627-.066-1.12-.2-1.48-.133-.36-.363-.624-.689-.79-.327-.167-.79-.25-1.391-.25-.68,0-1.289.097-1.829.29s-1.077.43-1.61.71l-.5-1.04c.173-.146.493-.34.96-.58.467-.24,1.007-.453,1.62-.64.613-.187,1.227-.28,1.84-.28.946,0,1.696.13,2.25.39.553.26.95.677,1.19,1.25.239.574.359,1.34.359,2.3v6.42h1.181v.88c-.268.067-.604.133-1.011.2-.406.066-.763.1-1.069.1-.374,0-.627-.057-.761-.17-.133-.113-.199-.363-.199-.75v-.66c-.4.4-.891.767-1.471,1.1-.58.333-1.236.5-1.97.5-.96,0-1.757-.277-2.39-.83-.634-.553-.95-1.35-.95-2.39,0-1.253.626-2.177,1.88-2.77Zm3.52,4.31c.453-.213.867-.467,1.24-.76v-3.44c-1.453,0-2.55.224-3.29.67-.74.447-1.109,1.03-1.109,1.75s.176,1.25.529,1.59c.354.34.83.51,1.431.51.347,0,.746-.106,1.199-.32Z"/><path class="cls-1" d="m139.954,148.688l-1.619-.22v-.86l3.22-.38h.04l.439.3v14.94l1.7.16v.98h-5.399v-.98l1.619-.18v-13.76Z"/><path class="cls-1" d="m151.934,149.988l-1.86-.24v-1h5.88v1l-1.859.24v12.44l1.859.22v.96h-5.859v-.98l1.84-.2v-12.44Z"/><path class="cls-1" d="m158.926,154.048l-1.44-.36v-1.08l2.86-.36h.06l.42.36v.84l-.02.48c.479-.426,1.113-.813,1.899-1.16.787-.347,1.54-.52,2.261-.52.84,0,1.489.16,1.949.48.46.32.783.81.971,1.47.187.66.279,1.55.279,2.67v5.6l1.4.14v1h-4.74v-.98l1.24-.16v-5.62c0-.787-.054-1.403-.16-1.85s-.307-.78-.6-1c-.294-.22-.721-.33-1.28-.33-.479,0-.993.12-1.54.36-.547.24-1.033.52-1.46.84v7.58l1.36.18v.98h-4.721v-.98l1.261-.18v-8.4Z"/><path class="cls-1" d="m172.247,163.288c-.373-.347-.56-.94-.56-1.78v-7.68h-1.44v-.9c.066-.013.253-.06.561-.14.306-.08.513-.153.619-.22.214-.12.381-.36.5-.72.107-.253.233-.66.381-1.22.146-.56.232-.893.26-1h1.18l.04,2.88h3.34v1.32h-3.34v6.14c0,.76.023,1.293.07,1.6.046.307.146.507.3.6s.417.14.79.14c.36,0,.757-.047,1.189-.14.434-.093.771-.193,1.011-.3l.3.9c-.32.24-.837.473-1.55.7-.714.227-1.363.34-1.95.34-.76,0-1.327-.174-1.7-.52Z"/><path class="cls-1" d="m179.621,162.248c-.847-1.053-1.271-2.46-1.271-4.22,0-1.16.221-2.18.66-3.06.44-.88,1.057-1.56,1.851-2.04.793-.48,1.696-.72,2.71-.72,1.239,0,2.203.343,2.89,1.03.687.687,1.05,1.67,1.09,2.95,0,.813-.047,1.434-.14,1.86h-6.88c.026,1.32.333,2.383.92,3.19.586.807,1.42,1.21,2.5,1.21.533,0,1.09-.096,1.67-.29.58-.193,1.03-.423,1.35-.69l.38.88c-.387.4-.96.747-1.72,1.04-.76.293-1.533.44-2.32.44-1.613,0-2.843-.527-3.689-1.58Zm5.729-5.26c.04-.28.061-.566.061-.86-.014-.867-.197-1.55-.55-2.05-.354-.5-.91-.75-1.67-.75-.773,0-1.391.28-1.851.84s-.724,1.5-.79,2.82h4.8Z"/><path class="cls-1" d="m190.667,148.688l-1.62-.22v-.86l3.22-.38h.04l.44.3v14.94l1.7.16v.98h-5.4v-.98l1.62-.18v-13.76Z"/><path class="cls-1" d="m197.547,148.688l-1.62-.22v-.86l3.22-.38h.04l.44.3v14.94l1.7.16v.98h-5.4v-.98l1.62-.18v-13.76Z"/><path class="cls-1" d="m204.477,154.048l-1.521-.36v-1.06l3.101-.38h.04l.46.36v9.86l1.6.16v.98h-5.3v-.98l1.62-.18v-8.4Zm-.16-3.9c-.214-.24-.32-.546-.32-.92,0-.427.13-.78.391-1.06.26-.28.616-.42,1.069-.42s.787.12,1,.36c.214.24.32.547.32.92,0,.454-.13.813-.39,1.08-.261.267-.624.4-1.091.4h-.02c-.427,0-.747-.12-.96-.36Z"/><path class="cls-1" d="m210.321,168.198c-.768-.54-1.15-1.283-1.15-2.23,0-.587.183-1.127.55-1.62.366-.494.804-.867,1.311-1.12-.614-.347-.921-.907-.921-1.68,0-.48.141-.933.421-1.36.279-.427.646-.753,1.1-.98-.667-.293-1.177-.713-1.53-1.26-.354-.546-.529-1.193-.529-1.94,0-.773.216-1.446.649-2.02.434-.573,1.007-1.013,1.72-1.32.714-.307,1.471-.46,2.271-.46,1.347,0,2.399.28,3.16.84.2-.2.506-.393.92-.58.413-.187.853-.28,1.319-.28h.681v1.76h-2.2c.32.494.48,1.067.48,1.72,0,.787-.197,1.483-.591,2.09-.394.607-.939,1.077-1.64,1.41-.7.333-1.49.5-2.37.5-.573,0-1.087-.06-1.54-.18-.187.187-.34.394-.46.62-.12.227-.18.447-.18.66,0,.48.16.81.479.99.32.18.894.27,1.721.27h2.26c1.293,0,2.253.247,2.88.74s.94,1.193.94,2.1c0,.76-.273,1.457-.82,2.09-.547.633-1.283,1.133-2.21,1.5-.927.367-1.931.55-3.01.55-1.707,0-2.944-.27-3.71-.81Zm5.739-.64c.58-.194,1.05-.48,1.41-.86.36-.38.54-.823.54-1.33,0-.6-.16-1.037-.479-1.31-.32-.273-.94-.41-1.86-.41h-2.36c-.533,0-.953-.034-1.26-.1-.547.6-.82,1.273-.82,2.02s.227,1.313.681,1.7c.453.386,1.22.58,2.3.58.653,0,1.27-.097,1.85-.29Zm.391-11.69c0-.893-.197-1.55-.591-1.97-.393-.42-.983-.63-1.77-.63-.733,0-1.313.203-1.74.61s-.64,1.057-.64,1.95c0,.84.203,1.507.61,2,.406.493,1.022.74,1.85.74,1.52,0,2.28-.9,2.28-2.7Z"/><path class="cls-1" d="m222.384,162.248c-.847-1.053-1.271-2.46-1.271-4.22,0-1.16.221-2.18.66-3.06.44-.88,1.057-1.56,1.851-2.04.793-.48,1.696-.72,2.71-.72,1.239,0,2.203.343,2.89,1.03.687.687,1.05,1.67,1.09,2.95,0,.813-.047,1.434-.14,1.86h-6.88c.026,1.32.333,2.383.92,3.19.586.807,1.42,1.21,2.5,1.21.533,0,1.09-.096,1.67-.29.58-.193,1.03-.423,1.35-.69l.38.88c-.387.4-.96.747-1.72,1.04-.76.293-1.533.44-2.32.44-1.613,0-2.843-.527-3.689-1.58Zm5.729-5.26c.04-.28.061-.566.061-.86-.014-.867-.197-1.55-.55-2.05-.354-.5-.91-.75-1.67-.75-.773,0-1.391.28-1.851.84s-.724,1.5-.79,2.82h4.8Z"/><path class="cls-1" d="m233.121,154.048l-1.44-.36v-1.08l2.86-.36h.06l.42.36v.84l-.02.48c.479-.426,1.113-.813,1.899-1.16.787-.347,1.54-.52,2.261-.52.84,0,1.489.16,1.949.48.46.32.783.81.971,1.47.187.66.279,1.55.279,2.67v5.6l1.4.14v1h-4.74v-.98l1.24-.16v-5.62c0-.787-.054-1.403-.16-1.85s-.307-.78-.6-1c-.294-.22-.721-.33-1.28-.33-.479,0-.993.12-1.54.36-.547.24-1.033.52-1.46.84v7.58l1.36.18v.98h-4.721v-.98l1.261-.18v-8.4Z"/><path class="cls-1" d="m245.424,155.128c.433-.893,1.073-1.603,1.92-2.13s1.863-.79,3.05-.79c.573,0,1.066.053,1.479.16.414.107.907.254,1.48.44l-.08,3.08h-1.3l-.44-2.04c-.08-.374-.587-.56-1.52-.56s-1.67.376-2.21,1.13-.811,1.823-.811,3.21c0,1.573.304,2.77.91,3.59.606.82,1.396,1.23,2.37,1.23.561,0,1.09-.086,1.59-.26s.931-.38,1.29-.62l.38.8c-.359.374-.89.71-1.59,1.01s-1.41.45-2.13.45c-1.094,0-2.017-.247-2.77-.74-.754-.493-1.32-1.17-1.7-2.03-.38-.86-.57-1.837-.57-2.93,0-1.106.217-2.106.65-3Z"/><path class="cls-1" d="m256.278,162.248c-.847-1.053-1.271-2.46-1.271-4.22,0-1.16.221-2.18.66-3.06.44-.88,1.057-1.56,1.851-2.04.793-.48,1.696-.72,2.71-.72,1.239,0,2.203.343,2.89,1.03.687.687,1.05,1.67,1.09,2.95,0,.813-.047,1.434-.14,1.86h-6.88c.026,1.32.333,2.383.92,3.19.586.807,1.42,1.21,2.5,1.21.533,0,1.09-.096,1.67-.29.58-.193,1.03-.423,1.35-.69l.38.88c-.387.4-.96.747-1.72,1.04-.76.293-1.533.44-2.32.44-1.613,0-2.843-.527-3.689-1.58Zm5.729-5.26c.04-.28.061-.566.061-.86-.014-.867-.197-1.55-.55-2.05-.354-.5-.91-.75-1.67-.75-.773,0-1.391.28-1.851.84s-.724,1.5-.79,2.82h4.8Z"/></g></svg>